# xmcd
#
# Track frame offsets:
#	151
#	13282
#	28869
#	38964
#	50737
#	65552
#	85027
#	100660
#	113079
#	126582
#	145169
#	159938
#	173743
#	182998
#	193629
#
# Disc length: 2777 seconds
#
# Revision: 0
# Processed by: cddbd v1.4PL0 Copyright (c) Steve Scherf et al.
# Submitted via: dBpowerAMP V4.0
#
DISCID=d20ad70f
DTITLE=Kenny Rogers - The Legends Collection - Vol. 2
DYEAR=1900
DGENRE=Country
TTITLE0=Ruby Don't Take Your Love To Town
TTITLE1=Good Lady Of Tronto
TTITLE2=Where Does Rosie Go
TTITLE3=What Am I Gonna Do
TTITLE4=All God's Lonely Children
TTITLE5=Lay It Down
TTITLE6=Tulsa Turnaround
TTITLE7=Love Woman
TTITLE8=I'm Gonna Sing You A Sad Song Suzie
TTITLE9=The King Of Oak Street
TTITLE10=Heed The Call
TTITLE11=Molly
TTITLE12=Camptown Ladies
TTITLE13=We All Got To Help Each Other
TTITLE14=After All
EXTD=
EXTT0=
EXTT1=
EXTT2=
EXTT3=
EXTT4=
EXTT5=
EXTT6=
EXTT7=
EXTT8=
EXTT9=
EXTT10=
EXTT11=
EXTT12=
EXTT13=
EXTT14=
PLAYORDER=
